<?xml version="1.0" standalone="no"?>
<!DOCTYPE svg PUBLIC "-//W3C//DTD SVG 20010904//EN"
 "http://www.w3.org/TR/2001/REC-SVG-20010904/DTD/svg10.dtd">
<svg version="1.0" xmlns="http://www.w3.org/2000/svg"
 width="700.000000pt" height="700.000000pt" viewBox="0 0 700.000000 700.000000"
 preserveAspectRatio="xMidYMid meet">
<metadata>
Created by potrace 1.14, written by Peter Selinger 2001-2017
</metadata>
<g transform="translate(0.000000,700.000000) scale(0.100000,-0.100000)"
fill="#000000" stroke="none">
<path d="M171 6983 c-61 -22 -133 -96 -154 -158 -16 -45 -17 -293 -17 -3325 0
-3562 -4 -3322 53 -3393 l22 -28 125 21 c806 137 1478 396 1950 751 357 269
609 602 730 968 76 227 75 219 74 843 0 307 -3 560 -6 563 -7 7 -12 6 -822
-154 -696 -138 -649 -135 -661 -36 -19 150 45 310 159 395 28 21 329 183 669
361 l618 324 -7 205 c-7 223 7 546 32 744 69 544 234 909 466 1031 l55 29 49
-19 c137 -52 262 -263 345 -584 86 -333 158 -954 159 -1362 l0 -96 353 -183
c844 -439 859 -448 915 -503 68 -67 107 -147 133 -275 19 -95 19 -105 5 -128
-10 -13 -26 -24 -39 -24 -12 0 -335 61 -717 135 -382 74 -699 135 -703 135
-15 0 2 -1051 19 -1173 76 -552 471 -1018 1169 -1379 426 -220 958 -398 1587
-532 91 -20 178 -36 191 -36 20 0 30 10 49 48 l23 47 3 3290 c2 3707 10 3347
-77 3435 -88 88 273 80 -3425 79 -2955 -1 -3285 -2 -3325 -16z"/>
</g>
</svg>
