<svg width="952" height="247" viewBox="0 0 952 247" fill="none" xmlns="http://www.w3.org/2000/svg">
<path d="M106.194 174.647L105.894 147.291L64.4676 155.72C64.2139 155.774 63.9515 155.772 63.6984 155.715C63.4453 155.658 63.2075 155.547 63.0013 155.39C62.7951 155.232 62.6253 155.032 62.5036 154.803C62.3819 154.574 62.3112 154.321 62.2963 154.062L62.1678 151.948C62.0149 149.459 62.5798 146.978 63.7952 144.801C65.0107 142.623 66.8256 140.84 69.0245 139.663L104.808 120.45C104.808 120.45 100.808 68.5532 120.679 59.8394C137.22 62.0536 137.335 122.079 137.335 122.079L171.433 140.349C173.16 141.271 174.656 142.57 175.811 144.151C176.966 145.731 177.75 147.552 178.104 149.477L178.889 153.763C178.94 154.041 178.925 154.327 178.846 154.598C178.766 154.87 178.624 155.119 178.431 155.325C178.238 155.532 178 155.691 177.735 155.789C177.469 155.887 177.185 155.922 176.904 155.891L135.492 147.649L135.606 176.804C135.92 224.416 204.874 239.958 240.943 244.829V0H192.046V28.327C192.046 34.0098 189.788 39.4599 185.77 43.4783C181.751 47.4967 176.301 49.7543 170.618 49.7543C164.936 49.7543 159.485 47.4967 155.467 43.4783C151.449 39.4599 149.191 34.0098 149.191 28.327V0H96.0229V28.327C96.0229 34.0098 93.7654 39.4599 89.747 43.4783C85.7286 47.4967 80.2785 49.7543 74.5956 49.7543C68.9127 49.7543 63.4626 47.4967 59.4442 43.4783C55.4258 39.4599 53.1683 34.0098 53.1683 28.327V0H0V246.943C99.6798 246.571 106.194 174.647 106.194 174.647Z" fill="#FF0000"/>
<path fill-rule="evenodd" clip-rule="evenodd" d="M659.979 138.461H638.306L589.232 64.3089V138.461H567.56V30.2516H589.232L638.306 104.558V30.2516H659.979V138.461ZM370.974 138.461L347.134 96.3537H336.917V138.461H315.244V30.4064H355.803C364.163 30.4064 371.284 31.9029 377.167 34.8958C383.049 37.7855 387.435 41.7588 390.325 46.8158C393.318 51.7696 394.815 57.3426 394.815 63.5348C394.815 70.6559 392.75 77.1061 388.622 82.8856C384.494 88.5618 378.353 92.4835 370.2 94.6508L396.053 138.461H370.974ZM336.917 80.0991H355.029C360.912 80.0991 365.298 78.7058 368.188 75.9193C371.078 73.0296 372.522 69.0562 372.522 63.9993C372.522 59.0455 371.078 55.2269 368.188 52.5436C365.298 49.7571 360.912 48.3639 355.029 48.3639H336.917V80.0991ZM436.09 30.4064V138.461H414.417V30.4064H436.09ZM514.935 138.461L554.566 30.4064H531.5L501.932 116.324L472.209 30.4064H448.988L488.618 138.461H514.935ZM703.069 74.9905V47.8995H744.093V30.2516H681.396V138.461H744.093V120.813H703.069V92.1739H739.448V74.9905H703.069ZM570.782 172.533C569.864 172.533 569.077 172.205 568.422 171.549C567.766 170.894 567.438 170.085 567.438 169.123C567.438 168.162 567.766 167.375 568.422 166.763C569.077 166.107 569.864 165.78 570.782 165.78C571.7 165.78 572.487 166.107 573.142 166.763C573.798 167.375 574.126 168.162 574.126 169.123C574.126 170.085 573.798 170.894 573.142 171.549C572.487 172.205 571.7 172.533 570.782 172.533ZM573.077 215.084H568.487V179.286H573.077V215.084ZM319.59 215.084V169.254H315V215.084H319.59ZM357.258 182.63C354.548 179.963 351.051 178.63 346.767 178.63C344.057 178.63 341.631 179.22 339.489 180.4C337.348 181.537 335.709 183.198 334.572 185.383V179.286H329.983V215.084H334.572V195.546C334.572 191.306 335.599 188.093 337.654 185.908C339.708 183.722 342.462 182.63 345.915 182.63C349.28 182.63 351.925 183.657 353.848 185.711C355.815 187.766 356.799 190.738 356.799 194.628V215.084H361.323V194.104C361.323 189.077 359.968 185.252 357.258 182.63ZM377.439 183.154V205.381C377.439 207.566 377.854 209.074 378.685 209.905C379.515 210.735 380.98 211.15 383.078 211.15H387.274V215.084H382.357C379.122 215.084 376.718 214.341 375.144 212.855C373.571 211.325 372.784 208.834 372.784 205.381V183.154H367.801V179.286H372.784V170.303H377.439V179.286H387.274V183.154H377.439ZM427.101 198.955C427.188 198.125 427.232 196.923 427.232 195.349C427.232 192.29 426.533 189.514 425.134 187.023C423.779 184.487 421.812 182.477 419.233 180.991C416.698 179.504 413.726 178.761 410.316 178.761C406.907 178.761 403.869 179.504 401.203 180.991C398.537 182.477 396.46 184.618 394.974 187.416C393.488 190.213 392.745 193.47 392.745 197.185C392.745 200.9 393.488 204.157 394.974 206.954C396.504 209.708 398.602 211.85 401.268 213.38C403.935 214.866 406.951 215.609 410.316 215.609C414.644 215.609 418.228 214.516 421.069 212.331C423.954 210.101 425.833 207.238 426.708 203.742H421.856C421.2 206.189 419.845 208.134 417.791 209.577C415.78 211.019 413.289 211.74 410.316 211.74C408.043 211.74 405.945 211.26 404.022 210.298C402.099 209.293 400.547 207.828 399.367 205.905C398.187 203.982 397.531 201.665 397.4 198.955H427.101ZM420.938 188.399C422.074 190.279 422.621 192.552 422.577 195.218H397.4C397.662 191.241 398.996 188.159 401.4 185.973C403.804 183.788 406.71 182.695 410.12 182.695C412.393 182.695 414.491 183.176 416.414 184.138C418.337 185.099 419.845 186.52 420.938 188.399ZM440.219 185.646C441.224 183.416 442.754 181.69 444.808 180.466C446.906 179.242 449.463 178.63 452.479 178.63V183.416H451.233C447.911 183.416 445.245 184.313 443.235 186.105C441.224 187.897 440.219 190.891 440.219 195.087V215.084H435.629V179.286H440.219V185.646ZM486.658 182.63C483.948 179.963 480.452 178.63 476.168 178.63C473.458 178.63 471.032 179.22 468.89 180.4C466.749 181.537 465.109 183.198 463.973 185.383V179.286H459.383V215.084H463.973V195.546C463.973 191.306 465 188.093 467.055 185.908C469.109 183.722 471.863 182.63 475.316 182.63C478.681 182.63 481.326 183.657 483.249 185.711C485.216 187.766 486.199 190.738 486.199 194.628V215.084H490.723V194.104C490.723 189.077 489.368 185.252 486.658 182.63ZM498.776 197.12C498.776 193.448 499.497 190.235 500.939 187.481C502.425 184.684 504.458 182.542 507.037 181.056C509.659 179.526 512.61 178.761 515.888 178.761C519.297 178.761 522.226 179.548 524.674 181.122C527.165 182.695 528.957 184.706 530.05 187.154V179.286H534.64V215.084H530.05V207.151C528.914 209.599 527.1 211.631 524.608 213.248C522.16 214.822 519.232 215.609 515.822 215.609C512.588 215.609 509.659 214.844 507.037 213.314C504.458 211.784 502.425 209.621 500.939 206.823C499.497 204.026 498.776 200.791 498.776 197.12ZM530.05 197.185C530.05 194.3 529.46 191.765 528.28 189.58C527.1 187.394 525.482 185.711 523.428 184.531C521.417 183.351 519.188 182.761 516.74 182.761C514.205 182.761 511.932 183.329 509.922 184.465C507.911 185.602 506.316 187.263 505.135 189.448C503.999 191.59 503.431 194.147 503.431 197.12C503.431 200.048 503.999 202.627 505.135 204.856C506.316 207.042 507.911 208.724 509.922 209.905C511.932 211.041 514.205 211.609 516.74 211.609C519.188 211.609 521.417 211.019 523.428 209.839C525.482 208.659 527.1 206.976 528.28 204.791C529.46 202.605 530.05 200.07 530.05 197.185ZM551.084 205.381V183.154H560.918V179.286H551.084V170.303H546.428V179.286H541.445V183.154H546.428V205.381C546.428 208.834 547.215 211.325 548.789 212.855C550.362 214.341 552.766 215.084 556.001 215.084H560.918V211.15H556.722C554.624 211.15 553.16 210.735 552.329 209.905C551.499 209.074 551.084 207.566 551.084 205.381ZM590.026 213.38C592.736 214.866 595.774 215.609 599.14 215.609C602.506 215.609 605.565 214.866 608.319 213.38C611.073 211.85 613.236 209.686 614.81 206.889C616.383 204.091 617.17 200.857 617.17 197.185C617.17 193.47 616.383 190.235 614.81 187.481C613.28 184.684 611.138 182.542 608.385 181.056C605.675 179.526 602.637 178.761 599.271 178.761C595.905 178.761 592.868 179.526 590.158 181.056C587.448 182.542 585.306 184.684 583.732 187.481C582.159 190.235 581.372 193.47 581.372 197.185C581.372 200.9 582.137 204.157 583.667 206.954C585.24 209.708 587.36 211.85 590.026 213.38ZM605.696 210.036C603.686 211.085 601.5 211.609 599.14 211.609C596.78 211.609 594.594 211.085 592.583 210.036C590.617 208.943 589.021 207.326 587.797 205.184C586.617 202.998 586.027 200.332 586.027 197.185C586.027 194.038 586.617 191.394 587.797 189.252C589.021 187.066 590.638 185.449 592.649 184.4C594.66 183.307 596.845 182.761 599.206 182.761C601.566 182.761 603.751 183.307 605.762 184.4C607.773 185.449 609.39 187.066 610.614 189.252C611.838 191.394 612.45 194.038 612.45 197.185C612.45 200.332 611.816 202.998 610.548 205.184C609.324 207.326 607.707 208.943 605.696 210.036ZM642.321 178.63C646.605 178.63 650.101 179.963 652.811 182.63C655.521 185.252 656.876 189.077 656.876 194.104V215.084H652.352V194.628C652.352 190.738 651.369 187.766 649.402 185.711C647.479 183.657 644.834 182.63 641.469 182.63C638.016 182.63 635.262 183.722 633.208 185.908C631.153 188.093 630.126 191.306 630.126 195.546V215.084H625.536V179.286H630.126V185.383C631.262 183.198 632.902 181.537 635.043 180.4C637.185 179.22 639.611 178.63 642.321 178.63ZM667.092 187.481C665.65 190.235 664.929 193.448 664.929 197.12C664.929 200.791 665.65 204.026 667.092 206.823C668.578 209.621 670.611 211.784 673.19 213.314C675.812 214.844 678.741 215.609 681.975 215.609C685.385 215.609 688.313 214.822 690.761 213.248C693.253 211.631 695.067 209.599 696.203 207.151V215.084H700.793V179.286H696.203V187.154C695.11 184.706 693.318 182.695 690.827 181.122C688.379 179.548 685.45 178.761 682.041 178.761C678.763 178.761 675.812 179.526 673.19 181.056C670.611 182.542 668.578 184.684 667.092 187.481ZM694.433 189.58C695.613 191.765 696.203 194.3 696.203 197.185C696.203 200.07 695.613 202.605 694.433 204.791C693.253 206.976 691.635 208.659 689.581 209.839C687.57 211.019 685.341 211.609 682.893 211.609C680.358 211.609 678.085 211.041 676.075 209.905C674.064 208.724 672.469 207.042 671.288 204.856C670.152 202.627 669.584 200.048 669.584 197.12C669.584 194.147 670.152 191.59 671.288 189.448C672.469 187.263 674.064 185.602 676.075 184.465C678.085 183.329 680.358 182.761 682.893 182.761C685.341 182.761 687.57 183.351 689.581 184.531C691.635 185.711 693.253 187.394 694.433 189.58ZM715.86 166.566V215.084H711.27V166.566H715.86ZM749.949 204.201H770.798L774.798 215.084H779.65L762.996 169.845H757.817L741.097 215.084H745.949L749.949 204.201ZM760.374 175.614L769.421 200.398H751.326L760.374 175.614ZM789.31 172.533C788.392 172.533 787.605 172.205 786.95 171.549C786.294 170.894 785.966 170.085 785.966 169.123C785.966 168.162 786.294 167.375 786.95 166.763C787.605 166.107 788.392 165.78 789.31 165.78C790.228 165.78 791.015 166.107 791.671 166.763C792.326 167.375 792.654 168.162 792.654 169.123C792.654 170.085 792.326 170.894 791.671 171.549C791.015 172.205 790.228 172.533 789.31 172.533ZM811.177 180.466C809.123 181.69 807.593 183.416 806.587 185.646V179.286H801.998V215.084H806.587V195.087C806.587 190.891 807.593 187.897 809.603 186.105C811.614 184.313 814.28 183.416 817.602 183.416H818.848V178.63C815.832 178.63 813.275 179.242 811.177 180.466ZM791.605 179.286V215.084H787.015V179.286H791.605ZM830.276 187.154C831.413 184.75 833.205 182.761 835.653 181.187C838.144 179.57 841.095 178.761 844.504 178.761C847.738 178.761 850.645 179.526 853.224 181.056C855.847 182.542 857.879 184.684 859.322 187.481C860.808 190.235 861.551 193.448 861.551 197.12C861.551 200.791 860.808 204.026 859.322 206.823C857.879 209.621 855.847 211.784 853.224 213.314C850.645 214.844 847.738 215.609 844.504 215.609C841.138 215.609 838.21 214.822 835.718 213.248C833.227 211.631 831.413 209.621 830.276 207.216V232H825.752V179.286H830.276V187.154ZM856.896 197.12C856.896 194.147 856.306 191.59 855.125 189.448C853.989 187.263 852.415 185.602 850.405 184.465C848.394 183.329 846.121 182.761 843.586 182.761C841.138 182.761 838.887 183.351 836.833 184.531C834.822 185.711 833.227 187.394 832.047 189.58C830.866 191.765 830.276 194.3 830.276 197.185C830.276 200.07 830.866 202.605 832.047 204.791C833.227 206.976 834.822 208.659 836.833 209.839C838.887 211.019 841.138 211.609 843.586 211.609C846.121 211.609 848.394 211.041 850.405 209.905C852.415 208.724 853.989 207.042 855.125 204.856C856.306 202.627 856.896 200.048 856.896 197.12ZM876.552 213.38C879.262 214.866 882.3 215.609 885.666 215.609C889.032 215.609 892.091 214.866 894.845 213.38C897.599 211.85 899.762 209.686 901.336 206.889C902.909 204.091 903.696 200.857 903.696 197.185C903.696 193.47 902.909 190.235 901.336 187.481C899.806 184.684 897.664 182.542 894.91 181.056C892.201 179.526 889.163 178.761 885.797 178.761C882.431 178.761 879.393 179.526 876.683 181.056C873.973 182.542 871.832 184.684 870.258 187.481C868.685 190.235 867.898 193.47 867.898 197.185C867.898 200.9 868.663 204.157 870.193 206.954C871.766 209.708 873.886 211.85 876.552 213.38ZM892.222 210.036C890.212 211.085 888.026 211.609 885.666 211.609C883.306 211.609 881.12 211.085 879.109 210.036C877.142 208.943 875.547 207.326 874.323 205.184C873.143 202.998 872.553 200.332 872.553 197.185C872.553 194.038 873.143 191.394 874.323 189.252C875.547 187.066 877.164 185.449 879.175 184.4C881.186 183.307 883.371 182.761 885.731 182.761C888.092 182.761 890.277 183.307 892.288 184.4C894.299 185.449 895.916 187.066 897.14 189.252C898.364 191.394 898.975 194.038 898.975 197.185C898.975 200.332 898.342 202.998 897.074 205.184C895.85 207.326 894.233 208.943 892.222 210.036ZM916.652 185.646C917.657 183.416 919.187 181.69 921.241 180.466C923.34 179.242 925.896 178.63 928.912 178.63V183.416H927.667C924.345 183.416 921.679 184.313 919.668 186.105C917.657 187.897 916.652 190.891 916.652 195.087V215.084H912.062V179.286H916.652V185.646ZM941.783 205.381V183.154H951.618V179.286H941.783V170.303H937.128V179.286H932.145V183.154H937.128V205.381C937.128 208.834 937.915 211.325 939.488 212.855C941.062 214.341 943.466 215.084 946.701 215.084H951.618V211.15H947.422C945.324 211.15 943.859 210.735 943.029 209.905C942.198 209.074 941.783 207.566 941.783 205.381Z" fill="#3A3A3A"/>
</svg>
