<svg width="169" height="130" viewBox="0 0 169 130" fill="none" xmlns="http://www.w3.org/2000/svg">
<path d="M0 129.5C78.32 123.42 74.35 80.37 74.35 80.37L74.15 61.22L45.15 67.12C44.9727 67.1641 44.788 67.1691 44.6086 67.1347C44.4291 67.1003 44.2594 67.0273 44.111 66.9208C43.9626 66.8143 43.8391 66.6767 43.7492 66.5177C43.6592 66.3587 43.6049 66.1821 43.59 66L43.5 64.52C43.3908 62.7783 43.7842 61.0419 44.6334 59.5173C45.4826 57.9927 46.7517 56.7441 48.29 55.92L73.34 42.43C73.34 42.43 70.55 6.1 84.46 0C96 1.55 96.12 43.57 96.12 43.57L120 56.36C121.209 57.0053 122.257 57.915 123.065 59.0214C123.874 60.1277 124.422 61.4022 124.67 62.75L125.22 65.75C125.256 65.9457 125.245 66.147 125.189 66.3379C125.133 66.5287 125.033 66.7036 124.896 66.8486C124.76 66.9936 124.592 67.1046 124.405 67.1725C124.218 67.2405 124.018 67.2636 123.82 67.24L94.88 61.47L95 81.88C95.22 115.21 143.48 126.09 168.74 129.5H0Z" fill="#FF0000"/>
</svg>
