<?xml version="1.0" encoding="UTF-8"?>
<svg
        xmlns:svg="http://www.w3.org/2000/svg"
        xmlns="http://www.w3.org/2000/svg"
        viewBox="0 0 1010.3733 173.46667"
        height="173.46667"
        width="1010.3733"
        xml:space="preserve"
        id="svg2"
        version="1.1"><defs
     id="defs6" />
    <g
            transform="matrix(1.3333333,0,0,-1.3333333,0,173.46667)"
            id="g10"><g
       transform="scale(0.1)"
       id="g12"><path
         id="path14"
         style="fill:#000000;fill-opacity:1;fill-rule:nonzero;stroke:none"
         d="m 3832.24,807.277 c 0,-189.972 -296.06,-200.582 -403.1,-200.582 -169.72,0 -431.06,27.969 -431.06,228.539 h 132.11 c 0,-107.996 216.99,-114.75 295.09,-114.75 40.51,0 277.74,-1.929 277.74,82.934 0,68.469 -120.55,78.113 -252.66,92.574 l -89.68,9.645 c -163.94,17.359 -353.91,40.496 -353.91,190.933 0,179.38 279.65,204.44 405.98,204.44 130.19,0 399.23,-27.97 398.26,-216.01 h -141.74 c 0,93.54 -201.56,102.22 -279.67,102.22 -33.75,0 -253.61,-1.93 -253.61,-85.83 0,-61.71 81.97,-67.5 221.79,-83.89 l 145.62,-17.36 c 115.71,-13.499 328.84,-31.824 328.84,-192.863" /><path
            id="path16"
            style="fill:#000000;fill-opacity:1;fill-rule:nonzero;stroke:none"
            d="m 4151.42,890.207 94.51,189.003 c 43.39,87.76 57.85,106.08 107.99,106.08 50.16,0 69.44,-25.08 108.98,-106.08 l 94.11,-189.003 z M 4693.38,616.34 h 144.64 l -266.16,513.02 c -59.78,115.73 -101.25,171.65 -215.04,171.65 -113.78,0 -155.26,-55.92 -215.04,-171.65 L 3875.62,616.34 h 138.87 l 82.93,165.863 h 513.37 l 82.59,-165.863"/><path
            id="path18"
            style="fill:#000000;fill-opacity:1;fill-rule:nonzero;stroke:none"
            d="m 2862.12,1175.64 v 115.73 H 2138.88 V 616.34 h 723.24 v 115.719 h -601.74 v 169.726 h 532.64 v 107.995 h -532.64 v 165.86 h 601.74"/><path
            id="path20"
            style="fill:#0654F2;fill-opacity:1;fill-rule:nonzero;stroke:none"
            d="m 3832.61,228.809 c -57.21,73.687 -112.47,149.312 -235.6,149.312 -123.13,0 -177.43,-77.562 -235.6,-151.25 -53.33,-67.859 -77.56,-110.531 -142.52,-110.531 -64.97,0 -89.2,43.629 -142.53,112.469 -58.18,72.714 -112.46,149.312 -235.6,149.312 -123.13,0 -177.42,-77.562 -235.6,-151.25 C 2551.84,159.012 2527.6,116.34 2462.64,116.34 V 0 c 118.29,0 181.3,82.3984 235.6,156.09 56.23,75.629 79.51,105.68 142.52,105.68 63.03,0 86.29,-30.051 142.53,-105.68 C 3037.58,82.3984 3100.59,0 3218.89,0 c 118.28,0 181.29,82.3984 235.59,156.09 56.23,75.629 79.51,105.68 142.53,105.68 63.02,0 86.29,-30.051 142.52,-105.68 C 3793.82,82.3984 3856.84,0 3975.13,0 v 116.34 c -64.97,0 -89.2,43.629 -142.52,112.469"/><path
            id="path22"
            style="fill:#0654F2;fill-opacity:1;fill-rule:nonzero;stroke:none"
            d="m 2228.98,224.93 c -52.36,72.711 -111.5,153.191 -241.42,153.191 -129.91,0 -188.09,-81.441 -241.41,-153.191 -41.69,-57.2 -80.47,-108.59 -146.41,-108.59 V 0 c 127.98,0 186.16,82.3984 240.45,155.129 55.26,73.68 82.42,106.641 147.37,106.641 63.99,0 91.14,-32.961 145.44,-106.641 C 2188.26,82.3984 2246.43,0 2375.38,0 v 116.34 c -65.93,0 -104.71,51.39 -146.4,108.59"/><path
            id="path24"
            style="fill:#0654F2;fill-opacity:1;fill-rule:nonzero;stroke:none"
            d="m 4356.48,62.8594 c -13.09,0 -24.11,9.9101 -24.11,28.9414 0,19.0312 11.02,28.9292 24.11,28.9292 13.12,0 24.11,-9.898 24.11,-28.9292 0,-19.0313 -10.99,-28.9414 -24.11,-28.9414 z m 0,75.3126 c -27.57,0 -46.47,-18.434 -46.47,-46.3712 0,-27.9414 18.9,-46.3711 46.47,-46.3711 27.45,0 46.51,18.4297 46.51,46.3711 0,27.9372 -19.06,46.3712 -46.51,46.3712"/><path
            id="path26"
            style="fill:#0654F2;fill-opacity:1;fill-rule:nonzero;stroke:none"
            d="m 4446.85,64.8516 h -8.78 v 54.0274 h 8.78 c 15.59,0 29.69,-3.34 29.69,-26.9493 0,-23.75 -14.1,-27.0781 -29.69,-27.0781 z m -0.35,71.8284 h -29.56 V 47.0391 h 29.56 c 29.3,0 52.41,10.6328 52.41,44.8906 0,34.1213 -23.11,44.7503 -52.41,44.7503"/><path
            id="path28"
            style="fill:#0654F2;fill-opacity:1;fill-rule:nonzero;stroke:none"
            d="m 4552.83,101.07 -12.24,2.469 c -6.18,1.359 -10.39,4.582 -10.39,9.031 0,5.559 6.06,8.649 14.22,8.649 9.04,0 15.58,-3.828 17.68,-10.508 h 20.91 c -3.1,19.789 -19.8,27.461 -37.35,27.461 -17.56,0 -37.21,-8.531 -37.21,-26.832 0,-16.0705 13.22,-23.008 27.81,-26.1017 l 10.9,-2.2188 c 9.75,-2.0976 16.69,-4.9375 16.69,-10.7578 0,-7.4101 -8.18,-9.7734 -15.35,-9.7734 -11.01,0 -18.41,4.332 -20.77,13.7226 h -21.02 c 3.21,-19.2812 18.3,-30.7812 41.31,-30.7812 18.65,0 37.58,10.6289 37.58,29.4297 0,18.789 -18.3,23.2422 -32.77,26.2106"/><path
            id="path30"
            style="fill:#0654F2;fill-opacity:1;fill-rule:nonzero;stroke:none"
            d="m 1890.02,62.8594 c -13.1,0 -24.12,9.9101 -24.12,28.9414 0,19.0312 11.02,28.9292 24.12,28.9292 13.11,0 24.11,-9.898 24.11,-28.9292 0,-19.0313 -11,-28.9414 -24.11,-28.9414 z m 0,75.3126 c -27.57,0 -46.48,-18.434 -46.48,-46.3712 0,-27.9414 18.91,-46.3711 46.48,-46.3711 27.45,0 46.5,18.4297 46.5,46.3711 0,27.9372 -19.05,46.3712 -46.5,46.3712"/><path
            id="path32"
            style="fill:#0654F2;fill-opacity:1;fill-rule:nonzero;stroke:none"
            d="m 1980.38,64.8516 h -8.77 v 54.0274 h 8.77 c 15.6,0 29.69,-3.34 29.69,-26.9493 0,-23.75 -14.09,-27.0781 -29.69,-27.0781 z m -0.35,71.8284 h -29.55 V 47.0391 h 29.55 c 29.29,0 52.41,10.6328 52.41,44.8906 0,34.1213 -23.12,44.7503 -52.41,44.7503"/><path
            id="path34"
            style="fill:#0654F2;fill-opacity:1;fill-rule:nonzero;stroke:none"
            d="m 2086.36,101.07 -12.24,2.469 c -6.18,1.359 -10.38,4.582 -10.38,9.031 0,5.559 6.05,8.649 14.22,8.649 9.03,0 15.57,-3.828 17.67,-10.508 h 20.91 c -3.1,19.789 -19.79,27.461 -37.35,27.461 -17.55,0 -37.21,-8.531 -37.21,-26.832 0,-16.0705 13.22,-23.008 27.81,-26.1017 l 10.89,-2.2188 c 9.76,-2.0976 16.7,-4.9375 16.7,-10.7578 0,-7.4101 -8.17,-9.7734 -15.34,-9.7734 -11.02,0 -18.42,4.332 -20.78,13.7226 h -21.03 c 3.23,-19.2812 18.3,-30.7812 41.32,-30.7812 18.65,0 37.58,10.6289 37.58,29.4297 0,18.789 -18.3,23.2422 -32.77,26.2106"/><path
            id="path36"
            style="fill:#0654F2;fill-opacity:1;fill-rule:nonzero;stroke:none"
            d="m 1369.96,228.809 c -57.2,73.687 -112.46,149.312 -235.59,149.312 -123.14,0 -177.432,-77.562 -235.6,-151.25 C 845.441,159.012 821.203,116.34 756.242,116.34 c -64.961,0 -89.195,43.629 -142.523,112.469 -58.172,72.714 -112.469,149.312 -235.594,149.312 -123.133,0 -177.43,-77.562 -235.602,-151.25 C 89.1992,159.012 64.9609,116.34 0,116.34 V 0 c 118.285,0 181.301,82.3984 235.598,156.09 56.23,75.629 79.504,105.68 142.527,105.68 63.016,0 86.289,-30.051 142.52,-105.68 C 574.941,82.3984 637.957,0 756.242,0 c 118.289,0 181.305,82.3984 235.602,156.09 56.236,75.629 79.496,105.68 142.526,105.68 63.02,0 86.28,-30.051 142.52,-105.68 C 1331.19,82.3984 1394.2,0 1512.49,0 v 116.34 c -64.96,0 -89.21,43.629 -142.53,112.469"/><path
            id="path38"
            style="fill:#0654F2;fill-opacity:1;fill-rule:nonzero;stroke:none"
            d="m 4691.62,224.93 c -52.36,72.711 -111.49,153.191 -241.42,153.191 -129.92,0 -188.08,-81.441 -241.4,-153.191 -41.7,-57.2 -80.48,-108.59 -146.41,-108.59 V 0 c 127.98,0 186.14,82.3984 240.45,155.129 55.26,73.68 82.41,106.641 147.36,106.641 64,0 91.15,-32.961 145.44,-106.641 C 4650.9,82.3984 4709.07,0 4838.03,0 v 116.34 c -65.93,0 -104.72,51.39 -146.41,108.59"/><path
            id="path40"
            style="fill:#000000;fill-opacity:1;fill-rule:nonzero;stroke:none"
            d="m 1523.64,732.059 h -256.52 v 443.591 h 256.52 c 230.47,0 350.05,-76.18 350.05,-221.795 0,-145.617 -119.58,-221.796 -350.05,-221.796 m 9.64,559.311 H 1145.62 V 616.34 h 387.66 c 299.9,0 469.62,123.433 469.62,337.515 0,214.085 -169.72,337.515 -469.62,337.515"/><path
            id="path42"
            style="fill:#000000;fill-opacity:1;fill-rule:nonzero;stroke:none"
            d="m 502.41,606.695 c 319.195,0 502.41,126.328 502.41,347.16 0,220.825 -183.215,347.155 -502.41,347.155 C 183.223,1301.01 0,1174.68 0,953.855 0,733.023 183.223,606.695 502.41,606.695 m 0,113.789 c -253.613,0 -373.187,81.008 -373.187,233.371 0,152.365 119.574,233.365 373.187,233.365 253.625,0 373.199,-81 373.199,-233.365 0,-152.363 -119.574,-233.371 -373.199,-233.371"/><path
            id="path44"
            style="fill:#000000;fill-opacity:1;fill-rule:nonzero;stroke:none"
            d="m 5073.54,1046.27 h 35.94 V 1295 h -35.94 v -248.73"/><path
            id="path46"
            style="fill:#000000;fill-opacity:1;fill-rule:nonzero;stroke:none"
            d="m 5373.71,1180.15 c -10.92,25.72 -42.63,42.98 -85.25,42.98 -39.64,0 -59.89,-10.98 -76.81,-30.13 v 25.2 h -33.48 v -171.93 h 33.48 V 1128 c 0,45.8 25.36,66.59 70.81,66.59 42.64,0 63.77,-18.32 63.77,-57.43 v -90.89 h 33.11 v 93.01 c 0,14.09 0,27.48 -5.63,40.87"/><path
            id="path48"
            style="fill:#000000;fill-opacity:1;fill-rule:nonzero;stroke:none"
            d="m 5487.86,1190.71 h 56.02 v 27.49 h -54.97 v 48.97 h -33.11 v -48.97 h -29.95 v -27.49 h 29.25 v -91.95 c 0,-36.29 14.79,-54.96 47.56,-54.96 13.74,0 27.12,1.06 40.51,2.47 v 29.59 c -5.98,-1.06 -17.61,-2.47 -31.35,-2.47 -20.79,0 -23.96,8.11 -23.96,29.95 v 87.37"/><path
            id="path50"
            style="fill:#000000;fill-opacity:1;fill-rule:nonzero;stroke:none"
            d="m 5615.75,1128.36 h 176.5 v 4.93 c 0,31.71 -28.88,90.55 -106.39,90.55 -43.68,0 -104.64,-22.2 -104.64,-91.25 0,-59.55 49.68,-91.61 105.34,-91.61 34.88,0 81.74,10.93 102.17,55.32 l -32.06,8.81 c -11.27,-25.72 -39.1,-37.35 -65.53,-37.35 -49.32,0 -73.98,31.35 -75.39,60.6 z m 138.81,25.01 h -137.75 c 11.26,30.65 40.16,45.45 71.17,45.45 38.4,0 57.77,-20.43 66.58,-45.45"/><path
            id="path52"
            style="fill:#000000;fill-opacity:1;fill-rule:nonzero;stroke:none"
            d="m 5939.87,1221.01 c -30.39,0 -50.25,-13.38 -63.05,-28.36 v 25.55 h -33.48 v -171.93 h 33.48 v 95.83 c 0,46.15 45.08,49.32 58.12,49.32 13.39,0 21.49,-1.06 27.83,-2.47 v 29.25 c -4.93,1.05 -11.27,2.81 -22.9,2.81"/><path
            id="path54"
            style="fill:#000000;fill-opacity:1;fill-rule:nonzero;stroke:none"
            d="m 6197.06,1180.15 c -10.92,25.72 -42.63,42.98 -85.25,42.98 -39.64,0 -59.89,-10.98 -76.81,-30.13 v 25.2 h -33.47 V 1046.27 H 6035 V 1128 c 0,45.8 25.37,66.59 70.82,66.59 42.63,0 63.76,-18.32 63.76,-57.43 v -90.89 h 33.12 v 93.01 c 0,14.09 0,27.48 -5.64,40.87"/><path
            id="path56"
            style="fill:#000000;fill-opacity:1;fill-rule:nonzero;stroke:none"
            d="m 6476.09,1046.27 v 25.71 c 0,0 -8.1,-1.75 -13.74,-1.75 -15.14,0 -17.97,6.33 -17.97,24.65 v 63.77 c 0,51.09 -44.38,64.83 -90.18,64.83 -46.15,0 -83.16,-8.45 -93.02,-43.69 l 33.83,-3.17 c 7.04,16.56 33.11,20.79 57.42,20.79 58.49,0 60.6,-20.79 60.6,-34.88 v -9.16 h -48.97 c -40.52,0 -67.29,-0.7 -83.86,-8.1 -9.16,-3.88 -30.29,-16.56 -30.29,-46.16 0,-23.95 15.15,-59.19 80.67,-59.19 51.45,0 76.46,21.15 82.8,33.83 1.41,-12.68 3.87,-29.24 33.12,-29.24 13.04,0 22.55,0.7 29.59,1.76 z m -125.77,81.38 h 63.06 c 0,-43.33 -34.88,-62.01 -80.32,-62.01 -34.17,0 -49.68,16.91 -49.68,33.82 0,28.19 33.11,28.19 66.94,28.19"/><path
            id="path58"
            style="fill:#000000;fill-opacity:1;fill-rule:nonzero;stroke:none"
            d="m 6560.65,1190.71 h 56.02 v 27.49 h -54.96 v 48.97 h -33.12 v -48.97 h -29.95 v -27.49 h 29.24 v -91.95 c 0,-36.29 14.8,-54.96 47.57,-54.96 13.74,0 27.13,1.06 40.52,2.47 v 29.59 c -6,-1.06 -17.62,-2.47 -31.36,-2.47 -20.79,0 -23.96,8.11 -23.96,29.95 v 87.37"/><path
            id="path60"
            style="fill:#000000;fill-opacity:1;fill-rule:nonzero;stroke:none"
            d="m 6668.46,1247.09 h 35.93 v 34.52 h -35.93 z m 1.4,-200.82 h 33.48 v 171.93 h -33.48 v -171.93"/><path
            id="path62"
            style="fill:#000000;fill-opacity:1;fill-rule:nonzero;stroke:none"
            d="m 6978.85,1131.52 c 0,66.95 -58.49,90.9 -112.75,90.9 -46.15,0 -111.68,-23.25 -111.68,-93.71 0,-54.61 47.56,-87.73 112.74,-87.73 71.17,0 111.69,40.87 111.69,90.54 z m -33.48,0.71 c 0,-45.8 -42.98,-63.41 -76.45,-63.41 -48.62,0 -80.68,26.06 -80.68,62 0,42.28 38.76,64.12 77.16,64.12 34.52,0 79.97,-15.5 79.97,-62.71"/><path
            id="path64"
            style="fill:#000000;fill-opacity:1;fill-rule:nonzero;stroke:none"
            d="m 7225.46,1180.15 c -10.92,25.72 -42.63,42.98 -85.26,42.98 -39.63,0 -59.88,-10.98 -76.8,-30.13 v 25.2 h -33.47 v -171.93 h 33.47 V 1128 c 0,45.8 25.37,66.59 70.81,66.59 42.63,0 63.77,-18.32 63.77,-57.43 v -90.89 h 33.12 v 93.01 c 0,14.09 0,27.48 -5.64,40.87"/><path
            id="path66"
            style="fill:#000000;fill-opacity:1;fill-rule:nonzero;stroke:none"
            d="m 7504.49,1046.27 v 25.71 c 0,0 -8.1,-1.75 -13.74,-1.75 -15.15,0 -17.97,6.33 -17.97,24.65 v 63.77 c 0,51.09 -44.38,64.83 -90.18,64.83 -46.16,0 -83.16,-8.45 -93.02,-43.69 l 33.83,-3.17 c 7.04,16.56 33.11,20.79 57.42,20.79 58.49,0 60.59,-20.79 60.59,-34.88 v -9.16 h -48.96 c -40.52,0 -67.3,-0.7 -83.86,-8.1 -9.16,-3.88 -30.29,-16.56 -30.29,-46.16 0,-23.95 15.15,-59.19 80.67,-59.19 51.45,0 76.46,21.15 82.8,33.83 1.41,-12.68 3.87,-29.24 33.12,-29.24 13.03,0 22.55,0.7 29.59,1.76 z m -125.77,81.38 h 63.06 c 0,-43.33 -34.88,-62.01 -80.33,-62.01 -34.17,0 -49.67,16.91 -49.67,33.82 0,28.19 33.11,28.19 66.94,28.19"/><path
            id="path68"
            style="fill:#000000;fill-opacity:1;fill-rule:nonzero;stroke:none"
            d="m 7544.66,1046.27 h 33.11 V 1295 h -33.11 v -248.73"/><path
            id="path70"
            style="fill:#000000;fill-opacity:1;fill-rule:nonzero;stroke:none"
            d="m 5299.9,616.875 h 40.87 l -127.54,248.73 h -37.69 l -128.95,-248.73 h 39.82 l 30.29,61.301 h 152.9 z m -106.4,213.152 60.95,-123.312 h -122.96 z"/><path
            id="path72"
            style="fill:#000000;fill-opacity:1;fill-rule:nonzero;stroke:none"
            d="m 5374.24,817.691 h 35.93 v 34.528 h -35.93 z m 1.41,-200.816 h 33.47 v 171.926 h -33.47 V 616.875"/><path
            id="path74"
            style="fill:#000000;fill-opacity:1;fill-rule:nonzero;stroke:none"
            d="m 5569.07,791.621 c -30.39,0 -50.25,-13.383 -63.07,-28.359 v 25.539 h -33.46 V 616.875 H 5506 v 95.828 c 0,46.152 45.1,49.324 58.14,49.324 13.38,0 21.48,-1.058 27.83,-2.464 v 29.238 c -4.93,1.058 -11.28,2.82 -22.9,2.82"/><path
            id="path76"
            style="fill:#000000;fill-opacity:1;fill-rule:nonzero;stroke:none"
            d="m 5736.41,640.48 c -32.76,0 -73.98,15.504 -73.98,61.305 0,36.281 23.6,64.824 72.58,64.824 45.8,0 72.22,-27.48 72.22,-61.304 0,-38.047 -27.84,-64.825 -70.82,-64.825 z m 2.12,152.547 c -29.96,0 -58.24,-10.359 -74.34,-30.82 v 26.594 h -33.47 V 548.176 h 33.47 v 94.969 c 9.44,-10.715 30.72,-29.442 81.03,-29.442 66.59,0 98.29,44.746 98.29,90.547 0,47.914 -38.04,88.777 -104.98,88.777"/><path
            id="path78"
            style="fill:#000000;fill-opacity:1;fill-rule:nonzero;stroke:none"
            d="m 6106.7,702.137 c 0,66.937 -58.49,90.89 -112.75,90.89 -46.15,0 -111.68,-23.25 -111.68,-93.711 0,-54.609 47.56,-87.726 112.74,-87.726 71.17,0 111.69,40.867 111.69,90.547 z m -33.48,0.703 c 0,-45.801 -42.98,-63.418 -76.44,-63.418 -48.63,0 -80.69,26.074 -80.69,62.004 0,42.281 38.76,64.121 77.16,64.121 34.53,0 79.97,-15.496 79.97,-62.707"/><path
            id="path80"
            style="fill:#000000;fill-opacity:1;fill-rule:nonzero;stroke:none"
            d="m 6254.32,791.621 c -30.4,0 -50.26,-13.383 -63.07,-28.359 v 25.539 h -33.47 V 616.875 h 33.47 v 95.828 c 0,46.152 45.1,49.324 58.13,49.324 13.39,0 21.49,-1.058 27.84,-2.464 v 29.238 c -4.94,1.058 -11.28,2.82 -22.9,2.82"/><path
            id="path82"
            style="fill:#000000;fill-opacity:1;fill-rule:nonzero;stroke:none"
            d="m 6362.82,761.324 h 56.03 v 27.477 h -54.96 v 48.972 h -33.12 v -48.972 h -29.95 v -27.477 h 29.24 v -91.953 c 0,-36.289 14.8,-54.961 47.57,-54.961 13.74,0 27.12,1.055 40.51,2.465 v 29.598 c -5.99,-1.063 -17.61,-2.473 -31.35,-2.473 -20.8,0 -23.97,8.105 -23.97,29.945 v 87.379"/></g></g></svg>