<svg width="140" height="37" viewBox="0 0 140 37" fill="none" xmlns="http://www.w3.org/2000/svg">
<path d="M15.5556 25.7933L15.5117 21.7532L9.44343 22.998C9.40626 23.0059 9.36782 23.0057 9.33075 22.9973C9.29368 22.9889 9.25884 22.9725 9.22864 22.9493C9.19843 22.926 9.17356 22.8965 9.15574 22.8626C9.13791 22.8288 9.12756 22.7915 9.12537 22.7532L9.10654 22.441C9.08415 22.0734 9.16689 21.707 9.34493 21.3854C9.52298 21.0638 9.78884 20.8004 10.1109 20.6267L15.3526 17.7891C15.3526 17.7891 14.7667 10.1245 17.6774 8.83759C20.1005 9.16459 20.1172 18.0296 20.1172 18.0296L25.112 20.7279C25.365 20.8641 25.5842 21.056 25.7534 21.2894C25.9226 21.5228 26.0374 21.7917 26.0892 22.076L26.2043 22.7089C26.2117 22.75 26.2095 22.7923 26.1979 22.8324C26.1862 22.8725 26.1654 22.9092 26.1372 22.9398C26.1089 22.9703 26.074 22.9938 26.0351 23.0083C25.9963 23.0228 25.9546 23.0279 25.9135 23.0233L19.8473 21.806L19.864 26.1119C19.9101 33.1436 30.0106 35.4389 35.2941 36.1584V0H28.1315V4.18356C28.1315 5.02286 27.8008 5.82777 27.2122 6.42124C26.6236 7.01471 25.8252 7.34813 24.9928 7.34813C24.1603 7.34813 23.362 7.01471 22.7733 6.42124C22.1847 5.82777 21.854 5.02286 21.854 4.18356V0H14.0657V4.18356C14.0657 5.02286 13.7351 5.82777 13.1464 6.42124C12.5578 7.01471 11.7595 7.34813 10.927 7.34813C10.0946 7.34813 9.29621 7.01471 8.70758 6.42124C8.11895 5.82777 7.78826 5.02286 7.78826 4.18356V0H0V36.4706C14.6014 36.4157 15.5556 25.7933 15.5556 25.7933Z" fill="#FF0000"/>
<path fill-rule="evenodd" clip-rule="evenodd" d="M97.0666 20H93.8858L86.6834 9.11641V20H83.5025V4.11768H86.6834L93.8858 15.024V4.11768H97.0666V20ZM54.6501 20L51.1511 13.8198H49.6516V20H46.4707V4.1404H52.4235C53.6504 4.1404 54.6955 4.36004 55.5589 4.79932C56.4223 5.22346 57.066 5.80664 57.4902 6.54888C57.9294 7.27597 58.1491 8.09394 58.1491 9.00281C58.1491 10.048 57.8461 10.9947 57.2402 11.843C56.6344 12.6761 55.7331 13.2517 54.5365 13.5698L58.3308 20H54.6501ZM49.6516 11.434H52.3099C53.1733 11.434 53.817 11.2295 54.2411 10.8205C54.6652 10.3964 54.8773 9.81321 54.8773 9.07097C54.8773 8.34388 54.6652 7.78342 54.2411 7.38958C53.817 6.98059 53.1733 6.7761 52.3099 6.7761H49.6516V11.434ZM64.2069 4.1404V20H61.026V4.1404H64.2069ZM75.7789 20L81.5954 4.1404H78.21L73.8704 16.7508L69.5081 4.1404H66.1L71.9164 20H75.7789ZM103.391 10.6842V6.70793H109.412V4.11768H100.21V20H109.412V17.4098H103.391V13.2063H108.73V10.6842H103.391ZM84.0492 25.0775C83.9144 25.0775 83.7988 25.0309 83.7024 24.9377C83.6061 24.8445 83.558 24.7296 83.558 24.5929C83.558 24.4563 83.6061 24.3444 83.7024 24.2575C83.7988 24.1643 83.9144 24.1177 84.0492 24.1177C84.1841 24.1177 84.2997 24.1643 84.396 24.2575C84.4923 24.3444 84.5405 24.4563 84.5405 24.5929C84.5405 24.7296 84.4923 24.8445 84.396 24.9377C84.2997 25.0309 84.1841 25.0775 84.0492 25.0775ZM47.145 31.1252V24.6116H46.4707V31.1252H47.145ZM52.679 26.5126C52.2809 26.1336 51.7671 25.9441 51.1378 25.9441C50.7397 25.9441 50.3833 26.028 50.0686 26.1957C49.7539 26.3572 49.5131 26.5933 49.3462 26.9039V26.0373H48.6719V31.1252H49.3462V28.3483C49.3462 27.7457 49.4971 27.2891 49.7989 26.9785C50.1007 26.6679 50.5053 26.5126 51.0126 26.5126C51.5071 26.5126 51.8956 26.6585 52.1781 26.9505C52.4671 27.2425 52.6116 27.6649 52.6116 28.2179V31.1252H53.2762V28.1433C53.2762 27.4289 53.0772 26.8853 52.679 26.5126ZM55.644 26.5871V29.7461C55.644 30.0567 55.705 30.271 55.827 30.3891C55.9491 30.5071 56.1642 30.5661 56.4724 30.5661H57.0889V31.1252H56.3665C55.8913 31.1252 55.5381 31.0196 55.3069 30.8084C55.0757 30.591 54.9601 30.2369 54.9601 29.7461V26.5871H54.228V26.0373H54.9601V24.7607H55.644V26.0373H57.0889V26.5871H55.644ZM62.9401 28.8329C62.953 28.7148 62.9594 28.544 62.9594 28.3204C62.9594 27.8855 62.8567 27.491 62.6512 27.1369C62.4521 26.7766 62.1631 26.4908 61.7842 26.2796C61.4118 26.0684 60.9751 25.9628 60.4742 25.9628C59.9733 25.9628 59.527 26.0684 59.1353 26.2796C58.7436 26.4908 58.4385 26.7952 58.2202 27.1928C58.0019 27.5904 57.8927 28.0532 57.8927 28.5813C57.8927 29.1093 58.0019 29.5722 58.2202 29.9697C58.445 30.3611 58.7532 30.6655 59.1449 30.883C59.5366 31.0942 59.9797 31.1998 60.4742 31.1998C61.11 31.1998 61.6365 31.0445 62.0539 30.7339C62.4778 30.417 62.7539 30.0101 62.8823 29.5131H62.1695C62.0732 29.861 61.8741 30.1375 61.5723 30.3425C61.2769 30.5475 60.9109 30.65 60.4742 30.65C60.1403 30.65 59.832 30.5817 59.5495 30.445C59.2669 30.3021 59.039 30.094 58.8656 29.8206C58.6922 29.5473 58.5959 29.218 58.5766 28.8329H62.9401ZM62.0347 27.3326C62.2016 27.5997 62.2819 27.9228 62.2755 28.3017H58.5766C58.6151 27.7364 58.811 27.2984 59.1642 26.9878C59.5174 26.6772 59.9444 26.5219 60.4453 26.5219C60.7792 26.5219 61.0875 26.5902 61.37 26.7269C61.6526 26.8636 61.8741 27.0655 62.0347 27.3326ZM64.8673 26.9412C65.015 26.6244 65.2398 26.379 65.5416 26.205C65.8498 26.0311 66.2255 25.9441 66.6686 25.9441V26.6244H66.4856C65.9975 26.6244 65.6058 26.7517 65.3104 27.0064C65.015 27.2611 64.8673 27.6867 64.8673 28.2831V31.1252H64.193V26.0373H64.8673V26.9412ZM71.6901 26.5126C71.2919 26.1336 70.7782 25.9441 70.1489 25.9441C69.7507 25.9441 69.3943 26.028 69.0797 26.1957C68.765 26.3572 68.5242 26.5933 68.3572 26.9039V26.0373H67.683V31.1252H68.3572V28.3483C68.3572 27.7457 68.5081 27.2891 68.81 26.9785C69.1118 26.6679 69.5163 26.5126 70.0237 26.5126C70.5181 26.5126 70.9066 26.6585 71.1892 26.9505C71.4782 27.2425 71.6227 27.6649 71.6227 28.2179V31.1252H72.2873V28.1433C72.2873 27.4289 72.0882 26.8853 71.6901 26.5126ZM73.4703 28.572C73.4703 28.0501 73.5763 27.5935 73.7882 27.2021C74.0065 26.8045 74.3051 26.5001 74.684 26.2889C75.0693 26.0715 75.5028 25.9628 75.9844 25.9628C76.4853 25.9628 76.9155 26.0746 77.2751 26.2982C77.6412 26.5219 77.9045 26.8076 78.065 27.1555V26.0373H78.7393V31.1252H78.065V29.9977C77.898 30.3456 77.6315 30.6345 77.2655 30.8643C76.9059 31.088 76.4756 31.1998 75.9748 31.1998C75.4995 31.1998 75.0693 31.0911 74.684 30.8736C74.3051 30.6562 74.0065 30.3487 73.7882 29.9511C73.5763 29.5535 73.4703 29.0938 73.4703 28.572ZM78.065 28.5813C78.065 28.1713 77.9783 27.8109 77.8049 27.5003C77.6315 27.1897 77.3939 26.9505 77.0921 26.7828C76.7967 26.6151 76.4692 26.5312 76.1096 26.5312C75.7372 26.5312 75.4032 26.6119 75.1078 26.7735C74.8124 26.935 74.578 27.1711 74.4046 27.4817C74.2377 27.7861 74.1542 28.1495 74.1542 28.572C74.1542 28.9882 74.2377 29.3547 74.4046 29.6715C74.578 29.9822 74.8124 30.2213 75.1078 30.3891C75.4032 30.5506 75.7372 30.6314 76.1096 30.6314C76.4692 30.6314 76.7967 30.5475 77.0921 30.3798C77.3939 30.212 77.6315 29.9729 77.8049 29.6622C77.9783 29.3516 78.065 28.9913 78.065 28.5813ZM81.1552 29.7461V26.5871H82.6V26.0373H81.1552V24.7607H80.4713V26.0373H79.7392V26.5871H80.4713V29.7461C80.4713 30.2369 80.5868 30.591 80.818 30.8084C81.0492 31.0196 81.4024 31.1252 81.8776 31.1252H82.6V30.5661H81.9836C81.6753 30.5661 81.4602 30.5071 81.3382 30.3891C81.2162 30.271 81.1552 30.0567 81.1552 29.7461ZM86.8765 30.883C87.2747 31.0942 87.721 31.1998 88.2154 31.1998C88.7099 31.1998 89.1594 31.0942 89.564 30.883C89.9686 30.6655 90.2864 30.358 90.5176 29.9604C90.7488 29.5628 90.8644 29.1031 90.8644 28.5813C90.8644 28.0532 90.7488 27.5935 90.5176 27.2021C90.2928 26.8045 89.9782 26.5001 89.5736 26.2889C89.1755 26.0715 88.7292 25.9628 88.2347 25.9628C87.7402 25.9628 87.2939 26.0715 86.8958 26.2889C86.4976 26.5001 86.183 26.8045 85.9518 27.2021C85.7206 27.5935 85.605 28.0532 85.605 28.5813C85.605 29.1093 85.7174 29.5722 85.9422 29.9697C86.1733 30.3611 86.4848 30.6655 86.8765 30.883ZM89.1787 30.4077C88.8833 30.5568 88.5622 30.6314 88.2154 30.6314C87.8687 30.6314 87.5476 30.5568 87.2522 30.4077C86.9632 30.2524 86.7288 30.0225 86.549 29.7181C86.3756 29.4075 86.2889 29.0286 86.2889 28.5813C86.2889 28.134 86.3756 27.7581 86.549 27.4537C86.7288 27.1431 86.9664 26.9132 87.2618 26.7642C87.5572 26.6088 87.8783 26.5312 88.2251 26.5312C88.5718 26.5312 88.8929 26.6088 89.1883 26.7642C89.4837 26.9132 89.7213 27.1431 89.9011 27.4537C90.0809 27.7581 90.1708 28.134 90.1708 28.5813C90.1708 29.0286 90.0777 29.4075 89.8915 29.7181C89.7117 30.0225 89.4741 30.2524 89.1787 30.4077ZM94.5594 25.9441C95.1888 25.9441 95.7025 26.1336 96.1006 26.5126C96.4988 26.8853 96.6978 27.4289 96.6978 28.1433V31.1252H96.0332V28.2179C96.0332 27.6649 95.8887 27.2425 95.5997 26.9505C95.3172 26.6585 94.9287 26.5126 94.4342 26.5126C93.9269 26.5126 93.5223 26.6679 93.2205 26.9785C92.9187 27.2891 92.7678 27.7457 92.7678 28.3483V31.1252H92.0935V26.0373H92.7678V26.9039C92.9347 26.5933 93.1756 26.3572 93.4902 26.1957C93.8049 26.028 94.1613 25.9441 94.5594 25.9441ZM98.1987 27.2021C97.9868 27.5935 97.8808 28.0501 97.8808 28.572C97.8808 29.0938 97.9868 29.5535 98.1987 29.9511C98.4171 30.3487 98.7157 30.6562 99.0945 30.8736C99.4798 31.0911 99.9101 31.1998 100.385 31.1998C100.886 31.1998 101.316 31.088 101.676 30.8643C102.042 30.6345 102.309 30.3456 102.476 29.9977V31.1252H103.15V26.0373H102.476V27.1555C102.315 26.8076 102.052 26.5219 101.686 26.2982C101.326 26.0746 100.896 25.9628 100.395 25.9628C99.9133 25.9628 99.4798 26.0715 99.0945 26.2889C98.7157 26.5001 98.4171 26.8045 98.1987 27.2021ZM84.3863 26.0373V31.1252H83.7121V26.0373H84.3863ZM102.215 27.5003C102.389 27.8109 102.476 28.1713 102.476 28.5813C102.476 28.9913 102.389 29.3516 102.215 29.6622C102.042 29.9729 101.804 30.212 101.503 30.3798C101.207 30.5475 100.88 30.6314 100.52 30.6314C100.148 30.6314 99.8138 30.5506 99.5184 30.3891C99.223 30.2213 98.9886 29.9822 98.8152 29.6715C98.6482 29.3547 98.5648 28.9882 98.5648 28.572C98.5648 28.1495 98.6482 27.7861 98.8152 27.4817C98.9886 27.1711 99.223 26.935 99.5184 26.7735C99.8138 26.6119 100.148 26.5312 100.52 26.5312C100.88 26.5312 101.207 26.6151 101.503 26.7828C101.804 26.9505 102.042 27.1897 102.215 27.5003ZM105.363 24.2295V31.1252H104.689V24.2295H105.363ZM113.435 29.5784L114.022 31.1252H114.735L112.289 24.6954H111.528L109.071 31.1252H109.784L110.372 29.5784H113.435ZM111.903 25.5155L113.233 29.0379H110.574L111.903 25.5155ZM116.154 25.0775C116.02 25.0775 115.904 25.0309 115.808 24.9377C115.711 24.8445 115.663 24.7296 115.663 24.5929C115.663 24.4563 115.711 24.3444 115.808 24.2575C115.904 24.1643 116.02 24.1177 116.154 24.1177C116.289 24.1177 116.405 24.1643 116.501 24.2575C116.598 24.3444 116.646 24.4563 116.646 24.5929C116.646 24.7296 116.598 24.8445 116.501 24.9377C116.405 25.0309 116.289 25.0775 116.154 25.0775ZM119.367 26.205C119.065 26.379 118.841 26.6244 118.693 26.9412V26.0373H118.019V31.1252H118.693V28.2831C118.693 27.6867 118.841 27.2611 119.136 27.0064C119.431 26.7517 119.823 26.6244 120.311 26.6244H120.494V25.9441C120.051 25.9441 119.675 26.0311 119.367 26.205ZM116.492 26.0373V31.1252H115.817V26.0373H116.492ZM122.173 27.1555C122.34 26.8139 122.603 26.5312 122.963 26.3075C123.329 26.0777 123.762 25.9628 124.263 25.9628C124.739 25.9628 125.166 26.0715 125.544 26.2889C125.93 26.5001 126.228 26.8045 126.44 27.2021C126.659 27.5935 126.768 28.0501 126.768 28.572C126.768 29.0938 126.659 29.5535 126.44 29.9511C126.228 30.3487 125.93 30.6562 125.544 30.8736C125.166 31.0911 124.739 31.1998 124.263 31.1998C123.769 31.1998 123.339 31.088 122.973 30.8643C122.607 30.6345 122.34 30.3487 122.173 30.007V33.5294H121.508V26.0373H122.173V27.1555ZM126.084 28.572C126.084 28.1495 125.997 27.7861 125.824 27.4817C125.657 27.1711 125.426 26.935 125.13 26.7735C124.835 26.6119 124.501 26.5312 124.128 26.5312C123.769 26.5312 123.438 26.6151 123.136 26.7828C122.841 26.9505 122.607 27.1897 122.433 27.5003C122.26 27.8109 122.173 28.1713 122.173 28.5813C122.173 28.9913 122.26 29.3516 122.433 29.6622C122.607 29.9729 122.841 30.212 123.136 30.3798C123.438 30.5475 123.769 30.6314 124.128 30.6314C124.501 30.6314 124.835 30.5506 125.13 30.3891C125.426 30.2213 125.657 29.9822 125.824 29.6715C125.997 29.3547 126.084 28.9882 126.084 28.572ZM128.972 30.883C129.37 31.0942 129.816 31.1998 130.311 31.1998C130.805 31.1998 131.255 31.0942 131.659 30.883C132.064 30.6655 132.382 30.358 132.613 29.9604C132.844 29.5628 132.96 29.1031 132.96 28.5813C132.96 28.0532 132.844 27.5935 132.613 27.2021C132.388 26.8045 132.073 26.5001 131.669 26.2889C131.271 26.0715 130.824 25.9628 130.33 25.9628C129.835 25.9628 129.389 26.0715 128.991 26.2889C128.593 26.5001 128.278 26.8045 128.047 27.2021C127.816 27.5935 127.7 28.0532 127.7 28.5813C127.7 29.1093 127.813 29.5722 128.037 29.9697C128.269 30.3611 128.58 30.6655 128.972 30.883ZM131.274 30.4077C130.979 30.5568 130.657 30.6314 130.311 30.6314C129.964 30.6314 129.643 30.5568 129.347 30.4077C129.058 30.2524 128.824 30.0225 128.644 29.7181C128.471 29.4075 128.384 29.0286 128.384 28.5813C128.384 28.134 128.471 27.7581 128.644 27.4537C128.824 27.1431 129.062 26.9132 129.357 26.7642C129.652 26.6088 129.974 26.5312 130.32 26.5312C130.667 26.5312 130.988 26.6088 131.284 26.7642C131.579 26.9132 131.817 27.1431 131.996 27.4537C132.176 27.7581 132.266 28.134 132.266 28.5813C132.266 29.0286 132.173 29.4075 131.987 29.7181C131.807 30.0225 131.569 30.2524 131.274 30.4077ZM134.863 26.9412C135.011 26.6244 135.236 26.379 135.537 26.205C135.846 26.0311 136.221 25.9441 136.664 25.9441V26.6244H136.481C135.993 26.6244 135.602 26.7517 135.306 27.0064C135.011 27.2611 134.863 27.6867 134.863 28.2831V31.1252H134.189V26.0373H134.863V26.9412ZM138.555 29.7461V26.5871H140V26.0373H138.555V24.7607H137.871V26.0373H137.139V26.5871H137.871V29.7461C137.871 30.2369 137.987 30.591 138.218 30.8084C138.449 31.0196 138.802 31.1252 139.278 31.1252H140V30.5661H139.384C139.075 30.5661 138.86 30.5071 138.738 30.3891C138.616 30.271 138.555 30.0567 138.555 29.7461Z" fill="white"/>
</svg>
